<svg width="1108" height="423" viewBox="0 0 1108 423" fill="none" xmlns="http://www.w3.org/2000/svg">
<path d="M1083.95 405.278C1085.77 401.115 1089.93 398.205 1094.76 398.205C1101.28 398.205 1106.56 403.483 1106.56 409.993C1106.56 416.503 1101.28 421.781 1094.76 421.781C1089.06 421.781 1084.3 417.731 1083.21 412.351H838.362L573.315 234.986L575.084 227.324L840.579 405.278H1083.95Z" fill="#3D459A"/>
<path d="M1085.13 16.9116C1086.95 21.0749 1091.11 23.9843 1095.94 23.9843C1102.46 23.9843 1107.74 18.7067 1107.74 12.1965C1107.74 5.68628 1102.46 0.408691 1095.94 0.408691C1090.24 0.408691 1085.48 4.45842 1084.39 9.83895H839.542L601.615 147.21L605.652 153.018L841.758 16.9116H1085.13Z" fill="#0FA663"/>
<path d="M22.8332 16.9116C21.0136 21.0749 16.858 23.9843 12.0226 23.9843C5.51011 23.9843 0.230713 18.7067 0.230713 12.1965C0.230713 5.68628 5.51011 0.408691 12.0226 0.408691C17.7274 0.408691 22.486 4.45842 23.5785 9.83895H268.424L506.351 147.21L502.314 153.018L266.208 16.9116H22.8332Z" fill="#FECC00"/>
<path d="M22.8332 406.457C21.0136 402.293 16.858 399.384 12.0226 399.384C5.51011 399.384 0.230713 404.661 0.230713 411.172C0.230713 417.682 5.51011 422.959 12.0226 422.959C17.7274 422.959 22.486 418.91 23.5785 413.529H268.424L506.351 276.159L502.314 270.35L266.208 406.457H22.8332Z" fill="#EE5543"/>
<path d="M436.529 188.913L559.03 107.678L560.543 110.406C562.963 114.952 565.08 119.196 566.895 123.743L567.5 126.168L472.826 188.913L567.5 251.657L566.592 253.779C564.777 258.326 562.66 262.569 560.543 267.116L559.03 269.844L436.529 188.913Z" fill="#FDD302"/>
<path d="M577.179 301.369L576.271 303.491C574.457 308.038 572.339 312.584 569.92 316.828L568.71 319.859L445.906 238.624L463.752 226.803L467.684 229.228L577.179 301.369Z" fill="#EE5543"/>
<path d="M579.296 201.643C579.296 202.552 578.994 203.461 578.994 204.371V205.583C578.691 208.614 578.389 211.948 577.784 214.98C577.481 216.495 577.481 217.708 577.179 218.92C576.271 223.77 575.364 227.71 574.457 231.348L573.315 234.986L570.222 232.863L503.073 188.912L573.247 142.535L574.457 146.476C575.364 150.113 576.271 154.054 577.179 158.903C577.481 160.116 577.481 161.025 577.784 162.238C578.389 165.875 578.691 169.209 578.994 172.24V173.453C578.994 174.362 579.296 175.272 579.296 176.181C579.599 181.031 579.901 185.274 579.901 189.215C579.901 192.852 579.599 197.096 579.296 201.643Z" fill="#3D459A"/>
<path d="M590.073 237.37L603.249 246.217C610.388 227.706 614.08 208.403 614.08 188.306C614.08 167.391 609.846 146.78 601.376 127.077L600.166 124.046L587.765 132.23L588.37 134.352C588.521 134.655 588.597 135.034 588.673 135.412C588.748 135.791 588.824 136.17 588.975 136.474L589.58 138.292C589.882 139.202 590.109 140.187 590.336 141.172C590.563 142.157 590.79 143.142 591.092 144.051C592 147.083 592.605 150.114 593.21 153.145L593.512 154.357L594.42 158.904C594.571 160.571 594.798 162.238 595.024 163.906C595.251 165.573 595.478 167.24 595.629 168.907L595.932 170.726C595.932 171.375 596.019 171.938 596.099 172.46C596.169 172.913 596.234 173.335 596.234 173.757L596.285 174.616L596.285 174.617C596.57 179.451 596.839 184.03 596.839 188.609C596.839 193.189 596.57 197.768 596.285 202.603L596.234 203.462C596.234 204.112 596.147 204.674 596.067 205.197C595.997 205.649 595.932 206.071 595.932 206.493L595.629 208.312C595.327 211.646 595.024 214.98 594.42 218.315L593.512 222.861L593.21 224.074C592.907 225.589 592.529 227.105 592.151 228.621C591.773 230.136 591.395 231.652 591.092 233.167C590.873 234.486 590.495 235.964 590.073 237.37Z" fill="#0FA663"/>
<path d="M680.019 207.403C678.809 209.222 676.692 211.04 674.575 211.95C672.457 212.859 669.433 213.768 666.408 213.768H663.988C660.963 213.768 658.241 212.859 656.124 211.95C654.007 211.04 652.192 209.222 650.982 207.403C649.772 205.584 649.167 203.159 649.167 200.431V174.363H661.266V200.431C661.266 201.644 661.266 202.553 662.173 203.462C663.081 204.372 663.988 204.675 665.198 204.675C666.408 204.675 667.92 204.372 668.828 203.462C669.735 202.553 670.34 201.644 670.34 200.431V174.363H682.439V200.431C682.439 203.159 681.229 205.281 680.019 207.403Z" fill="#FDD302"/>
<path d="M715.106 174.363H700.587L687.883 213.768H699.075L701.192 204.675H713.291L715.711 213.768H727.81L715.106 174.363ZM702.402 198.612L706.637 183.457H707.846L712.384 198.612H702.402Z" fill="#FDD302"/>
<path d="M759.569 174.363H745.05L732.347 213.768H743.538L745.655 204.675H757.754L760.174 213.768H772.273L759.569 174.363ZM746.865 198.612L751.1 183.457H752.31L756.847 198.612H746.865Z" fill="#FDD302"/>
</svg>
