<svg id="Layer_1" data-name="Layer 1" xmlns="http://www.w3.org/2000/svg" viewBox="0 0 233.04 71.52"><defs><style>.cls-1{fill:#fff;}.cls-2{fill:#4385f4;}.cls-3{isolation:isolate;}.cls-4{fill:#4a4a4a;}</style></defs><title>badge-5</title><rect class="cls-1" x="1" y="0.6" width="232.04" height="70.32" rx="10.05" ry="10.05"/><path class="cls-2" d="M57,14.66H27.64C17,17.26,16.8,26.3,16.8,26.3V56.85H28.09V29a2.82,2.82,0,0,1,2.26-2.79H57ZM34.69,30.74s-2.2-.22-2.2,1.77v8.85H47V44a1.26,1.26,0,0,1-1.31,1.33H32.49v11.5H48.31s9.59-1.5,9.67-11.5V30.74Z"/><path class="cls-2" d="M90,33c-.46.32-.79.55-1,.69A19.57,19.57,0,0,1,86.54,35a7.72,7.72,0,0,1-3,.69,10.47,10.47,0,0,1-7.5-2.84,9.46,9.46,0,0,1-3-7.17,10.51,10.51,0,0,1,2.71-7.22,8.44,8.44,0,0,1,6.59-3A10.77,10.77,0,0,1,85.8,16a9.3,9.3,0,0,1,3.8,2.24l-1.73,2a6.58,6.58,0,0,0-2.8-1.61,9.66,9.66,0,0,0-2.77-.38,5.7,5.7,0,0,0-4.56,2.24,8.28,8.28,0,0,0-1.83,5.37A6.79,6.79,0,0,0,78,30.91,7.29,7.29,0,0,0,83.31,33a5.26,5.26,0,0,0,2.75-.86l1.2-.91V26.9H81.44l.84-2.67H90Zm17.56-5.22a7.55,7.55,0,0,1-2.15,5.37,7.17,7.17,0,0,1-10.45,0,7.36,7.36,0,0,1-2.19-5.39,7.85,7.85,0,0,1,2.09-5.43,6.64,6.64,0,0,1,5.12-2.3,7.18,7.18,0,0,1,5.45,2.22A7.55,7.55,0,0,1,107.56,27.78Zm-2.73,0a4.94,4.94,0,0,0-1.37-3.55,4.47,4.47,0,0,0-3.4-1.46,4.2,4.2,0,0,0-3.25,1.5,5.07,5.07,0,0,0-1.33,3.45,4.92,4.92,0,0,0,1.35,3.47,4.43,4.43,0,0,0,3.37,1.46,4.33,4.33,0,0,0,3.24-1.44A4.73,4.73,0,0,0,104.83,27.82Zm20,0a7.55,7.55,0,0,1-2.15,5.37,7.17,7.17,0,0,1-10.45,0,7.36,7.36,0,0,1-2.19-5.39,7.85,7.85,0,0,1,2.09-5.43,6.64,6.64,0,0,1,5.12-2.3,7.18,7.18,0,0,1,5.45,2.22A7.55,7.55,0,0,1,124.88,27.78Zm-2.73,0a4.94,4.94,0,0,0-1.37-3.55,4.47,4.47,0,0,0-3.4-1.46,4.2,4.2,0,0,0-3.25,1.5,5.07,5.07,0,0,0-1.33,3.45,4.92,4.92,0,0,0,1.35,3.47,4.43,4.43,0,0,0,3.37,1.46,4.33,4.33,0,0,0,3.24-1.44A4.73,4.73,0,0,0,122.15,27.82ZM140.91,35l-2.51.39V32.92l-.54.63a6.45,6.45,0,0,1-1.59,1.12,6.27,6.27,0,0,1-2.73.61,6.51,6.51,0,0,1-5-2.21,7.6,7.6,0,0,1-2-5.29,7.93,7.93,0,0,1,2-5.43,6.33,6.33,0,0,1,4.92-2.25,6.87,6.87,0,0,1,2.91.56,5,5,0,0,1,1.49,1.06l.42.59V15.79L141,15.4l0,19.61Zm-2.35-7a5.08,5.08,0,0,0-1.46-3.7,4.45,4.45,0,0,0-3.32-1.52,4.27,4.27,0,0,0-3.36,1.44,5,5,0,0,0-1.22,3.36,5.41,5.41,0,0,0,1.26,3.68,4,4,0,0,0,3.18,1.44A4.86,4.86,0,0,0,137,31.33,4.38,4.38,0,0,0,138.56,28ZM155,18.51h-7.46v5.2h5.79v2.67h-5.79V35l-2.91.44V15.81h9.79ZM161,17l-1.79,2.32L157.47,17l1.81-2.29Zm-.53,18-2.67.37V20.87l2.67-.42Zm12-14.71-1.25,3a3.62,3.62,0,0,0-.5,0,5.12,5.12,0,0,0-.78.06,3.06,3.06,0,0,0-.83.29,3.33,3.33,0,0,0-1.46,1.61,6.73,6.73,0,0,0-.69,3V35l-2.67.44V20.87l2.47-.46v3c.32-.53.65-1.05,1-1.59a4,4,0,0,1,1.6-1.17,6.94,6.94,0,0,1,1.77-.31,7.31,7.31,0,0,1,1.37-.07ZM192.35,35l-2.67.39v-10a2.8,2.8,0,0,0-.6-2,2.32,2.32,0,0,0-1.77-.63A2.35,2.35,0,0,0,185.18,24a3.38,3.38,0,0,0-.5,1.71V35l-2.66.5v-10a3.08,3.08,0,0,0-.58-2,2,2,0,0,0-1.59-.69h-.26a2.12,2.12,0,0,0-2,1.21,5,5,0,0,0-.48,2.32V35l-2.77.5V20.87l2.49-.44v1.86a5.82,5.82,0,0,1,.82-1.05,3.46,3.46,0,0,1,2.49-1,4.3,4.3,0,0,1,2.36.52,4.45,4.45,0,0,1,1.34,1.72,4.34,4.34,0,0,1,3.92-2.24,4.23,4.23,0,0,1,3.64,1.59,6.36,6.36,0,0,1,1,3.86Zm12.18-4.41a4.34,4.34,0,0,1-1.37,3.3,4.79,4.79,0,0,1-3.47,1.3,5.49,5.49,0,0,1-2.84-.76,5.23,5.23,0,0,1-1.91-1.73L196.81,31a4,4,0,0,0,.38.5,3.34,3.34,0,0,0,2.5,1.11,2.25,2.25,0,0,0,1.6-.55,1.87,1.87,0,0,0,.57-1.5c0-.73-.45-1.23-1.37-1.5-1.81-.57-2.79-.88-2.93-.94a5.09,5.09,0,0,1-1.81-1.43,4.11,4.11,0,0,1-.63-2.42,4.09,4.09,0,0,1,1.35-3.13,4.51,4.51,0,0,1,3.2-1.23,5.39,5.39,0,0,1,2.61.64A4.35,4.35,0,0,1,204,22l-1.59,1.77a7.37,7.37,0,0,0-.77-.67,3.2,3.2,0,0,0-1.84-.69,2.36,2.36,0,0,0-1.37.38,1.61,1.61,0,0,0-.64,1.38,1.42,1.42,0,0,0,.62,1.29,8.5,8.5,0,0,0,2.31.75,5.5,5.5,0,0,1,2.77,1.51,3.9,3.9,0,0,1,1.05,2.88Z"/><g class="cls-3"><path class="cls-4" d="M74.19,53.75a.31.31,0,0,1-.09-.22V45.06a.31.31,0,0,1,.08-.23.3.3,0,0,1,.23-.09h3.17q3.84,0,3.91,3.54c0,.5,0,.84,0,1s0,.5,0,1a3.66,3.66,0,0,1-1,2.69,4.12,4.12,0,0,1-2.87.86H74.41A.29.29,0,0,1,74.19,53.75Zm3.39-1.42a2.14,2.14,0,0,0,1.56-.48,2.29,2.29,0,0,0,.51-1.6c0-.52,0-.84,0-1s0-.46,0-1a2.18,2.18,0,0,0-.54-1.56,2.21,2.21,0,0,0-1.6-.5H75.93v6.08Z"/><path class="cls-4" d="M82.86,45.88a.29.29,0,0,1-.09-.22v-.95a.32.32,0,0,1,.09-.23.29.29,0,0,1,.22-.09h1.19a.32.32,0,0,1,.24.09.32.32,0,0,1,.09.23v.95a.27.27,0,0,1-.1.22.32.32,0,0,1-.23.09H83.08A.29.29,0,0,1,82.86,45.88Zm0,7.87a.31.31,0,0,1-.09-.22V47.39a.32.32,0,0,1,.09-.23.33.33,0,0,1,.22-.08h1.11a.31.31,0,0,1,.31.31v6.14a.31.31,0,0,1-.31.31H83.13A.29.29,0,0,1,82.91,53.75Z"/><path class="cls-4" d="M87.19,56.32a2.59,2.59,0,0,1-1-.88,1.71,1.71,0,0,1-.3-.85.29.29,0,0,1,.09-.21.32.32,0,0,1,.23-.09h1.15a.32.32,0,0,1,.2.06.37.37,0,0,1,.14.22,1.63,1.63,0,0,0,.43.58,1.34,1.34,0,0,0,.88.24A1.65,1.65,0,0,0,90.14,55a1.62,1.62,0,0,0,.36-1.2V53a2.47,2.47,0,0,1-2,.83,2.5,2.5,0,0,1-2-.82,3.62,3.62,0,0,1-.74-2.24V50a3.71,3.71,0,0,1,.74-2.24,2.48,2.48,0,0,1,2-.84,2.73,2.73,0,0,1,1.21.26,2.46,2.46,0,0,1,.86.7v-.5a.3.3,0,0,1,.1-.24.31.31,0,0,1,.22-.09H92a.29.29,0,0,1,.22.09.32.32,0,0,1,.09.24v6.26a3,3,0,0,1-.8,2.24,3.34,3.34,0,0,1-2.43.79A4,4,0,0,1,87.19,56.32Zm2.91-4.38a2,2,0,0,0,.4-1.14,4.14,4.14,0,0,0,0-.42,3.91,3.91,0,0,0,0-.41,2,2,0,0,0-.4-1.15A1.3,1.3,0,0,0,89,48.35c-.94,0-1.43.58-1.49,1.72v.31c0,1.35.5,2,1.5,2A1.3,1.3,0,0,0,90.1,51.94Z"/><path class="cls-4" d="M93.79,45.88a.29.29,0,0,1-.09-.22v-.95a.32.32,0,0,1,.09-.23.29.29,0,0,1,.22-.09h1.2a.31.31,0,0,1,.32.32v.95a.27.27,0,0,1-.1.22.31.31,0,0,1-.22.09H94A.29.29,0,0,1,93.79,45.88Zm0,7.87a.31.31,0,0,1-.09-.22V47.39a.32.32,0,0,1,.09-.23.35.35,0,0,1,.22-.08h1.11a.31.31,0,0,1,.31.31v6.14a.31.31,0,0,1-.31.31H94.06A.31.31,0,0,1,93.84,53.75Z"/><path class="cls-4" d="M98.22,53.22a2.49,2.49,0,0,1-.6-1.81V48.47h-1a.31.31,0,0,1-.31-.31v-.77a.31.31,0,0,1,.09-.22.29.29,0,0,1,.22-.09h1V44.92a.29.29,0,0,1,.1-.23.33.33,0,0,1,.22-.08H99a.31.31,0,0,1,.22.08.32.32,0,0,1,.09.23v2.16H101a.29.29,0,0,1,.22.09.31.31,0,0,1,.09.22v.77a.31.31,0,0,1-.31.31H99.33v2.8a1.49,1.49,0,0,0,.19.84.72.72,0,0,0,.64.29h.91a.31.31,0,0,1,.23.08.34.34,0,0,1,.08.23v.82a.35.35,0,0,1-.08.22.32.32,0,0,1-.23.09H100A2.38,2.38,0,0,1,98.22,53.22Z"/><path class="cls-4" d="M103,53.7a2.16,2.16,0,0,1-.88-.72,1.78,1.78,0,0,1,.4-2.43,4.35,4.35,0,0,1,2-.74l1.78-.26v-.27a1.15,1.15,0,0,0-.29-.85,1.24,1.24,0,0,0-.91-.28,1.36,1.36,0,0,0-.69.15,2.55,2.55,0,0,0-.42.32l-.22.21a.19.19,0,0,1-.19.16h-1a.32.32,0,0,1-.21-.08.28.28,0,0,1-.08-.2,1.34,1.34,0,0,1,.32-.74,2.51,2.51,0,0,1,.94-.72,3.66,3.66,0,0,1,1.57-.3,3.1,3.1,0,0,1,2.24.69,2.41,2.41,0,0,1,.7,1.81v4.08a.35.35,0,0,1-.08.22.32.32,0,0,1-.23.09h-1.08a.29.29,0,0,1-.22-.09.31.31,0,0,1-.09-.22V53a2,2,0,0,1-.81.68,2.81,2.81,0,0,1-1.3.27A2.69,2.69,0,0,1,103,53.7Zm2.82-1.45a1.83,1.83,0,0,0,.46-1.35v-.26l-1.3.21c-1,.16-1.5.49-1.5,1a.72.72,0,0,0,.35.64,1.39,1.39,0,0,0,.82.23A1.52,1.52,0,0,0,105.85,52.25Z"/><path class="cls-4" d="M109.56,53.75a.31.31,0,0,1-.09-.22V44.92a.32.32,0,0,1,.09-.23.33.33,0,0,1,.22-.08h1.09a.34.34,0,0,1,.23.08.36.36,0,0,1,.08.23v8.61a.35.35,0,0,1-.08.22.3.3,0,0,1-.23.09h-1.09A.29.29,0,0,1,109.56,53.75Z"/><path class="cls-4" d="M115.6,53.75a.31.31,0,0,1-.09-.22V45.06a.32.32,0,0,1,.09-.23.28.28,0,0,1,.22-.09h1.06a.44.44,0,0,1,.39.25l2.51,4.65L122.29,45a.42.42,0,0,1,.39-.25h1a.31.31,0,0,1,.32.32v8.47a.28.28,0,0,1-.09.22.32.32,0,0,1-.23.09H122.6a.29.29,0,0,1-.22-.09.31.31,0,0,1-.09-.22V47.94l-1.81,3.43a.47.47,0,0,1-.43.29h-.55a.5.5,0,0,1-.44-.29l-1.81-3.43v5.59a.29.29,0,0,1-.31.31h-1.12A.31.31,0,0,1,115.6,53.75Z"/><path class="cls-4" d="M126.4,53.7a2.06,2.06,0,0,1-.87-.72,1.76,1.76,0,0,1,.4-2.43,4.3,4.3,0,0,1,2-.74l1.78-.26v-.27a1.15,1.15,0,0,0-.29-.85,1.24,1.24,0,0,0-.91-.28,1.41,1.41,0,0,0-.69.15,2.55,2.55,0,0,0-.42.32l-.21.21a.2.2,0,0,1-.2.16h-1a.28.28,0,0,1-.2-.08.25.25,0,0,1-.09-.2A1.41,1.41,0,0,1,126,48a2.59,2.59,0,0,1,.94-.72,3.71,3.71,0,0,1,1.58-.3,3.09,3.09,0,0,1,2.23.69,2.41,2.41,0,0,1,.7,1.81v4.08a.29.29,0,0,1-.31.31H130a.31.31,0,0,1-.31-.31V53a2.06,2.06,0,0,1-.8.68,2.83,2.83,0,0,1-1.31.27A2.72,2.72,0,0,1,126.4,53.7Zm2.83-1.45a1.87,1.87,0,0,0,.45-1.35v-.26l-1.3.21c-1,.16-1.49.49-1.49,1a.71.71,0,0,0,.34.64,1.42,1.42,0,0,0,.83.23A1.55,1.55,0,0,0,129.23,52.25Z"/><path class="cls-4" d="M132.92,53.75a.31.31,0,0,1-.09-.22V47.41a.32.32,0,0,1,.09-.24.29.29,0,0,1,.22-.09h1.07a.32.32,0,0,1,.23.09.32.32,0,0,1,.09.24v.53a2.21,2.21,0,0,1,1.87-.86H137a.28.28,0,0,1,.31.31v1a.33.33,0,0,1-.08.22.32.32,0,0,1-.23.09h-1a1.3,1.3,0,0,0-1,.35,1.34,1.34,0,0,0-.35,1v3.56a.31.31,0,0,1-.31.31h-1.16A.29.29,0,0,1,132.92,53.75Z"/><path class="cls-4" d="M138.12,53.75a.31.31,0,0,1-.09-.22V44.92a.32.32,0,0,1,.09-.23.33.33,0,0,1,.22-.08h1.08a.31.31,0,0,1,.31.31v4.45l2.16-2.07.12-.1a.47.47,0,0,1,.17-.09.5.5,0,0,1,.19,0h1.24a.28.28,0,0,1,.2.08.29.29,0,0,1,.08.21.32.32,0,0,1-.13.23l-2.65,2.51,3,3.22a.35.35,0,0,1,.11.22.25.25,0,0,1-.08.21.26.26,0,0,1-.19.08h-1.26a.5.5,0,0,1-.27-.05,1.1,1.1,0,0,1-.21-.17L139.73,51v2.52a.31.31,0,0,1-.09.22.29.29,0,0,1-.22.09h-1.08A.29.29,0,0,1,138.12,53.75Z"/><path class="cls-4" d="M145.24,53.14a3.37,3.37,0,0,1-.91-2.37v-.32a3.63,3.63,0,0,1,.85-2.56,3.47,3.47,0,0,1,4.75,0,3.57,3.57,0,0,1,.83,2.49v.28a.27.27,0,0,1-.09.22.3.3,0,0,1-.23.09h-4.32v.1a2,2,0,0,0,.4,1.2,1.23,1.23,0,0,0,1,.48,1.47,1.47,0,0,0,1.21-.6,1,1,0,0,1,.18-.18.61.61,0,0,1,.22,0h1.15a.31.31,0,0,1,.2.07.19.19,0,0,1,.08.18,1.17,1.17,0,0,1-.37.73,2.93,2.93,0,0,1-1.06.74,3.81,3.81,0,0,1-1.6.31A3.15,3.15,0,0,1,145.24,53.14ZM149,49.86v0a1.88,1.88,0,0,0-.38-1.23,1.3,1.3,0,0,0-1.05-.46,1.26,1.26,0,0,0-1,.46,1.88,1.88,0,0,0-.38,1.23v0Z"/><path class="cls-4" d="M153.13,53.22a2.53,2.53,0,0,1-.59-1.81V48.47h-1a.31.31,0,0,1-.31-.31v-.77a.31.31,0,0,1,.09-.22.29.29,0,0,1,.22-.09h1V44.92a.32.32,0,0,1,.09-.23.33.33,0,0,1,.22-.08h1.08a.31.31,0,0,1,.22.08.32.32,0,0,1,.09.23v2.16h1.62a.29.29,0,0,1,.22.09.28.28,0,0,1,.1.22v.77a.27.27,0,0,1-.1.22.29.29,0,0,1-.22.09h-1.62v2.8a1.49,1.49,0,0,0,.19.84.73.73,0,0,0,.64.29H156a.3.3,0,0,1,.23.08.34.34,0,0,1,.08.23v.82a.35.35,0,0,1-.08.22.3.3,0,0,1-.23.09h-1.07A2.39,2.39,0,0,1,153.13,53.22Z"/><path class="cls-4" d="M157.23,45.88a.29.29,0,0,1-.09-.22v-.95a.32.32,0,0,1,.09-.23.29.29,0,0,1,.22-.09h1.2a.31.31,0,0,1,.32.32v.95a.27.27,0,0,1-.1.22.31.31,0,0,1-.22.09h-1.2A.29.29,0,0,1,157.23,45.88Zm.05,7.87a.31.31,0,0,1-.09-.22V47.39a.32.32,0,0,1,.09-.23.33.33,0,0,1,.22-.08h1.11a.31.31,0,0,1,.31.31v6.14a.31.31,0,0,1-.31.31H157.5A.29.29,0,0,1,157.28,53.75Z"/><path class="cls-4" d="M160.47,53.75a.31.31,0,0,1-.09-.22V47.39a.32.32,0,0,1,.09-.23.33.33,0,0,1,.22-.08h1.08a.31.31,0,0,1,.22.08.32.32,0,0,1,.09.23v.53a2.64,2.64,0,0,1,2.17-1,2.43,2.43,0,0,1,1.9.78,3.11,3.11,0,0,1,.7,2.14v3.66a.31.31,0,0,1-.09.22.28.28,0,0,1-.22.09h-1.17a.29.29,0,0,1-.22-.09.31.31,0,0,1-.09-.22V50a1.74,1.74,0,0,0-.37-1.17,1.36,1.36,0,0,0-1.06-.43,1.42,1.42,0,0,0-1.07.43,1.65,1.65,0,0,0-.4,1.17v3.58a.31.31,0,0,1-.09.22.29.29,0,0,1-.23.09h-1.15A.29.29,0,0,1,160.47,53.75Z"/><path class="cls-4" d="M169.42,56.32a2.62,2.62,0,0,1-1-.88,1.71,1.71,0,0,1-.3-.85.29.29,0,0,1,.09-.21.29.29,0,0,1,.22-.09h1.16a.34.34,0,0,1,.2.06.42.42,0,0,1,.14.22,1.42,1.42,0,0,0,.43.58,1.34,1.34,0,0,0,.88.24,1.6,1.6,0,0,0,1.14-.35,1.58,1.58,0,0,0,.37-1.2V53a2.47,2.47,0,0,1-2,.83,2.54,2.54,0,0,1-2-.82,3.61,3.61,0,0,1-.73-2.24V50a3.64,3.64,0,0,1,.74-2.24,2.48,2.48,0,0,1,2-.84,2.73,2.73,0,0,1,1.21.26,2.55,2.55,0,0,1,.86.7v-.5a.32.32,0,0,1,.09-.24.33.33,0,0,1,.23-.09h1.07a.31.31,0,0,1,.22.09.32.32,0,0,1,.09.24v6.26a3,3,0,0,1-.8,2.24,3.35,3.35,0,0,1-2.44.79A4,4,0,0,1,169.42,56.32Zm2.91-4.38a2,2,0,0,0,.41-1.14,4.14,4.14,0,0,0,0-.42,3.91,3.91,0,0,0,0-.41,2,2,0,0,0-.41-1.15,1.29,1.29,0,0,0-1.09-.47c-.93,0-1.43.58-1.48,1.72v.31c0,1.35.5,2,1.49,2A1.29,1.29,0,0,0,172.33,51.94Z"/><path class="cls-4" d="M178.94,53.75a.31.31,0,0,1-.09-.22V45.06a.36.36,0,0,1,.08-.23.3.3,0,0,1,.23-.09h5.66a.31.31,0,0,1,.32.32V46a.29.29,0,0,1-.09.22.32.32,0,0,1-.23.09h-4.17v2.45h3.9a.32.32,0,0,1,.24.09.29.29,0,0,1,.09.22V50a.32.32,0,0,1-.09.23.32.32,0,0,1-.24.09h-3.9v3.21a.31.31,0,0,1-.09.22.32.32,0,0,1-.23.09h-1.17A.29.29,0,0,1,178.94,53.75Z"/><path class="cls-4" d="M186.3,45.88a.29.29,0,0,1-.09-.22v-.95a.32.32,0,0,1,.09-.23.29.29,0,0,1,.22-.09h1.19a.32.32,0,0,1,.24.09.32.32,0,0,1,.09.23v.95a.27.27,0,0,1-.1.22.32.32,0,0,1-.23.09h-1.19A.29.29,0,0,1,186.3,45.88Zm0,7.87a.31.31,0,0,1-.09-.22V47.39a.32.32,0,0,1,.09-.23.33.33,0,0,1,.22-.08h1.11a.31.31,0,0,1,.31.31v6.14a.31.31,0,0,1-.31.31h-1.11A.29.29,0,0,1,186.35,53.75Z"/><path class="cls-4" d="M189.53,53.75a.31.31,0,0,1-.09-.22V47.41a.32.32,0,0,1,.09-.24.31.31,0,0,1,.22-.09h1.07a.3.3,0,0,1,.23.09.33.33,0,0,1,.1.24v.53a2.2,2.2,0,0,1,1.87-.86h.54a.29.29,0,0,1,.32.31v1a.29.29,0,0,1-.09.22.29.29,0,0,1-.23.09h-1A1.21,1.21,0,0,0,191.22,50v3.56a.31.31,0,0,1-.09.22.29.29,0,0,1-.22.09h-1.16A.31.31,0,0,1,189.53,53.75Z"/><path class="cls-4" d="M194.72,53.75a.31.31,0,0,1-.09-.22V47.39a.32.32,0,0,1,.09-.23.33.33,0,0,1,.22-.08h1a.28.28,0,0,1,.31.31v.44a2.28,2.28,0,0,1,1.88-.88,2.06,2.06,0,0,1,2,1.16,2.3,2.3,0,0,1,.88-.84A2.54,2.54,0,0,1,202.3,47a2.25,2.25,0,0,1,1.74.73,3,3,0,0,1,.68,2.12v3.73a.31.31,0,0,1-.09.22.29.29,0,0,1-.23.09h-1.07a.29.29,0,0,1-.22-.09.28.28,0,0,1-.1-.22V49.9a1.66,1.66,0,0,0-.34-1.18,1.24,1.24,0,0,0-1.77,0,1.65,1.65,0,0,0-.36,1.18v3.63a.29.29,0,0,1-.31.31h-1.09a.29.29,0,0,1-.22-.09.31.31,0,0,1-.09-.22V49.9a1.7,1.7,0,0,0-.35-1.18,1.23,1.23,0,0,0-.9-.37,1.16,1.16,0,0,0-.86.37,1.65,1.65,0,0,0-.36,1.18v3.63a.31.31,0,0,1-.09.22.28.28,0,0,1-.22.09h-1.11A.29.29,0,0,1,194.72,53.75Z"/></g></svg>